<?xml version="1.0" encoding="utf-8"?>

<!DOCTYPE svg PUBLIC "-//W3C//DTD SVG 1.0//EN" "http://www.w3.org/TR/2001/REC-SVG-20010904/DTD/svg10.dtd">
<!-- Uploaded to: SVG Repo, www.svgrepo.com, Generator: SVG Repo Mixer Tools -->
<svg version="1.0" id="Layer_1" xmlns="http://www.w3.org/2000/svg" xmlns:xlink="http://www.w3.org/1999/xlink" 
	 width="800px" height="800px" viewBox="0 0 64 64" enable-background="new 0 0 64 64" xml:space="preserve">
<g>
	<g>
		<rect x="46" y="7" fill="#F76D57" width="4" height="8"/>
		<rect x="14" y="7" fill="#F76D57" width="4" height="8"/>
	</g>
	<path fill="#B4CCB9" d="M62,55c0,1.104-0.896,2-2,2H4c-1.104,0-2-0.896-2-2V15c0-1.104,0.896-2,2-2h8v3c0,0.553,0.447,1,1,1h6
		c0.553,0,1-0.447,1-1v-3h24v3c0,0.553,0.447,1,1,1h6c0.553,0,1-0.447,1-1v-3h8c1.104,0,2,0.896,2,2V55z"/>
	<path fill="#45AAB8" d="M14.521,44.374C15.457,43.08,17.639,41,22,41c4.363,0,6.545,2.082,7.48,3.374
		C27.428,46.014,24.831,47,22,47S16.572,46.014,14.521,44.374z"/>
	<path fill="#506C7F" d="M30.936,42.989C29.657,41.326,26.986,39,22,39s-7.657,2.326-8.936,3.989C11.165,40.867,10,38.072,10,35
		c0-6.627,5.373-12,12-12s12,5.373,12,12C34,38.072,32.835,40.867,30.936,42.989z"/>
	<g>
		<path fill="#394240" d="M60,11h-8V6c0-0.553-0.447-1-1-1h-6c-0.553,0-1,0.447-1,1v5H20V6c0-0.553-0.447-1-1-1h-6
			c-0.553,0-1,0.447-1,1v5H4c-2.211,0-4,1.789-4,4v40c0,2.211,1.789,4,4,4h56c2.211,0,4-1.789,4-4V15C64,12.789,62.211,11,60,11z
			 M46,7h4v8h-4V7z M14,7h4v8h-4V7z M62,55c0,1.104-0.896,2-2,2H4c-1.104,0-2-0.896-2-2V15c0-1.104,0.896-2,2-2h8v3
			c0,0.553,0.447,1,1,1h6c0.553,0,1-0.447,1-1v-3h24v3c0,0.553,0.447,1,1,1h6c0.553,0,1-0.447,1-1v-3h8c1.104,0,2,0.896,2,2V55z"/>
		<path fill="#394240" d="M41,39h10c0.553,0,1-0.447,1-1s-0.447-1-1-1H41c-0.553,0-1,0.447-1,1S40.447,39,41,39z"/>
		<path fill="#394240" d="M55,31H41c-0.553,0-1,0.447-1,1s0.447,1,1,1h14c0.553,0,1-0.447,1-1S55.553,31,55,31z"/>
		<path fill="#394240" d="M55,43H41c-0.553,0-1,0.447-1,1s0.447,1,1,1h14c0.553,0,1-0.447,1-1S55.553,43,55,43z"/>
		<path fill="#394240" d="M41,27h6c0.553,0,1-0.447,1-1s-0.447-1-1-1h-6c-0.553,0-1,0.447-1,1S40.447,27,41,27z"/>
		<path fill="#394240" d="M22,21c-7.731,0-14,6.269-14,14s6.269,14,14,14s14-6.269,14-14S29.731,21,22,21z M22,47
			c-2.831,0-5.428-0.986-7.479-2.626C15.457,43.08,17.639,41,22,41c4.363,0,6.545,2.082,7.48,3.374C27.428,46.014,24.831,47,22,47z
			 M30.936,42.989C29.657,41.326,26.986,39,22,39s-7.657,2.326-8.936,3.989C11.165,40.867,10,38.072,10,35c0-6.627,5.373-12,12-12
			s12,5.373,12,12C34,38.072,32.835,40.867,30.936,42.989z"/>
		<path fill="#394240" d="M27,34v-2c0-2.762-2.238-5-5-5s-5,2.238-5,5v2c0,2.762,2.238,5,5,5S27,36.762,27,34z M25,34
			c0,1.657-1.343,3-3,3s-3-1.343-3-3v-2c0-1.657,1.343-3,3-3s3,1.343,3,3V34z"/>
	</g>
	<path fill="#F9EBB2" d="M25,34c0,1.657-1.343,3-3,3s-3-1.343-3-3v-2c0-1.657,1.343-3,3-3s3,1.343,3,3V34z"/>
</g>
</svg>